<svg width="84" height="60" viewBox="0 0 84 60" fill="none" xmlns="http://www.w3.org/2000/svg">
<path d="M9.216 18.28C10.88 18.28 12.32 18.5147 13.536 18.984C14.7733 19.4533 15.8933 20.168 16.896 21.128L14.464 23.976C12.9493 22.7387 11.328 22.12 9.6 22.12C8.68267 22.12 7.95733 22.312 7.424 22.696C6.89067 23.0587 6.624 23.592 6.624 24.296C6.624 24.7867 6.74133 25.192 6.976 25.512C7.21067 25.8107 7.62667 26.0987 8.224 26.376C8.82133 26.6533 9.71733 26.984 10.912 27.368C13.1733 28.0933 14.8373 28.9893 15.904 30.056C16.9707 31.1013 17.504 32.5947 17.504 34.536C17.504 35.9227 17.152 37.1493 16.448 38.216C15.744 39.2613 14.7307 40.0827 13.408 40.68C12.0853 41.256 10.5173 41.544 8.704 41.544C6.89067 41.544 5.28 41.256 3.872 40.68C2.48533 40.104 1.29067 39.336 0.288 38.376L2.944 35.464C3.79733 36.1893 4.672 36.7333 5.568 37.096C6.48533 37.4587 7.47733 37.64 8.544 37.64C9.632 37.64 10.4853 37.4053 11.104 36.936C11.744 36.4453 12.064 35.7733 12.064 34.92C12.064 34.3653 11.9467 33.9067 11.712 33.544C11.4773 33.16 11.072 32.8187 10.496 32.52C9.92 32.2213 9.088 31.9013 8 31.56C5.54667 30.8133 3.79733 29.896 2.752 28.808C1.728 27.72 1.216 26.344 1.216 24.68C1.216 23.4 1.55733 22.28 2.24 21.32C2.92267 20.3387 3.872 19.592 5.088 19.08C6.304 18.5467 7.68 18.28 9.216 18.28ZM25.3525 24.008V41H20.2965V24.008H25.3525ZM22.7925 15.048C23.6672 15.048 24.3818 15.3253 24.9365 15.88C25.5125 16.4133 25.8005 17.096 25.8005 17.928C25.8005 18.76 25.5125 19.4533 24.9365 20.008C24.3818 20.5413 23.6672 20.808 22.7925 20.808C21.9178 20.808 21.2032 20.5413 20.6485 20.008C20.0938 19.4533 19.8165 18.76 19.8165 17.928C19.8165 17.096 20.0938 16.4133 20.6485 15.88C21.2032 15.3253 21.9178 15.048 22.7925 15.048ZM33.8398 41.544C32.3678 41.544 31.2158 41.128 30.3838 40.296C29.5731 39.4427 29.1678 38.2373 29.1678 36.68V17.256L34.2238 16.712V36.488C34.2238 37.192 34.5118 37.544 35.0878 37.544C35.3864 37.544 35.6638 37.4907 35.9198 37.384L36.9118 40.968C35.9944 41.352 34.9704 41.544 33.8398 41.544ZM53.1393 24.008L47.7953 41H41.8113L36.3392 24.008H41.8433L44.8513 37.16L47.9873 24.008H53.1393ZM69.4875 32.168C69.4875 32.872 69.4555 33.48 69.3915 33.992H58.8635C59.0342 35.4213 59.4395 36.424 60.0795 37C60.7195 37.576 61.6048 37.864 62.7355 37.864C63.4182 37.864 64.0795 37.7467 64.7195 37.512C65.3595 37.256 66.0528 36.872 66.7995 36.36L68.8795 39.176C66.8955 40.7547 64.6875 41.544 62.2555 41.544C59.5035 41.544 57.3915 40.7333 55.9195 39.112C54.4475 37.4907 53.7115 35.3147 53.7115 32.584C53.7115 30.856 54.0208 29.3093 54.6395 27.944C55.2582 26.5573 56.1648 25.4693 57.3595 24.68C58.5542 23.8693 59.9835 23.464 61.6475 23.464C64.1008 23.464 66.0208 24.232 67.4075 25.768C68.7942 27.304 69.4875 29.4373 69.4875 32.168ZM64.5275 30.728C64.4848 28.1253 63.5675 26.824 61.7755 26.824C60.9008 26.824 60.2182 27.144 59.7275 27.784C59.2582 28.424 58.9702 29.48 58.8635 30.952H64.5275V30.728ZM81.5438 23.528C82.1624 23.528 82.7278 23.6027 83.2398 23.752L82.4398 28.648C81.7998 28.4987 81.2878 28.424 80.9038 28.424C79.9011 28.424 79.1331 28.776 78.5998 29.48C78.0878 30.1627 77.6824 31.1973 77.3838 32.584V41H72.3278V24.008H76.7438L77.1598 27.304C77.5438 26.1307 78.1198 25.2133 78.8878 24.552C79.6771 23.8693 80.5624 23.528 81.5438 23.528Z" fill="#141414"/>
</svg>
